<svg xmlns="http://www.w3.org/2000/svg" viewBox="0 0 1080 1080" width="1080" height="1080">
  <defs>
    <linearGradient id="bg" x1="0" y1="0" x2="1" y2="1">
      <stop offset="0" stop-color="#0f172a"/>
      <stop offset="1" stop-color="#0b3b3a"/>
    </linearGradient>
  </defs>
  <rect width="1080" height="1080" fill="url(#bg)"/>
  <g opacity="0.08">
    <circle cx="900" cy="180" r="260" fill="#136c68"/>
    <circle cx="180" cy="900" r="220" fill="#136c68"/>
  </g>
  <g transform="translate(390 280)">
    <rect width="300" height="300" rx="64" ry="64" fill="#136c68"/>
    <g transform="translate(52 52) scale(8.166)" fill="none" stroke="#ffffff" stroke-width="2" stroke-linecap="round" stroke-linejoin="round">
      <path d="m11 17 2 2a1 1 0 1 0 3-3"/>
      <path d="m14 14 2.5 2.5a1 1 0 1 0 3-3l-3.88-3.88a3 3 0 0 0-4.24 0l-.88.88a1 1 0 1 1-3-3l2.81-2.81a5.79 5.79 0 0 1 7.06-.87l.47.28a2 2 0 0 0 1.42.25L21 4"/>
      <path d="m21 3 1 11h-2"/>
      <path d="M3 3 2 14l6.5 6.5a1 1 0 1 0 3-3"/>
      <path d="M3 4h8"/>
    </g>
  </g>
  <text x="540" y="720" text-anchor="middle" font-family="DM Sans, Inter, system-ui, sans-serif" font-size="92" font-weight="700" fill="#ffffff" letter-spacing="-3">Bareter</text>
  <text x="540" y="780" text-anchor="middle" font-family="DM Sans, Inter, system-ui, sans-serif" font-size="32" font-weight="500" fill="#5eead4">Worldwide Barter Marketplace</text>
  <text x="540" y="900" text-anchor="middle" font-family="DM Sans, Inter, system-ui, sans-serif" font-size="26" font-weight="400" fill="#cbd5e1">Trade goods and services without cash.</text>
</svg>
